<?xml version="1.0" encoding="UTF-8" standalone="no"?>
<!-- Created with Inkscape (http://www.inkscape.org/) -->

<svg
   xmlns:dc="http://purl.org/dc/elements/1.1/"
   xmlns:cc="http://creativecommons.org/ns#"
   xmlns:rdf="http://www.w3.org/1999/02/22-rdf-syntax-ns#"
   xmlns:svg="http://www.w3.org/2000/svg"
   xmlns="http://www.w3.org/2000/svg"
   xmlns:xlink="http://www.w3.org/1999/xlink"
   version="1.1"
   width="24"
   height="24"
   id="svg4524">
  <defs
     id="defs4526">
    <linearGradient
       id="linearGradient2867-449-88-871-390-598-476-591-434-148-57-177-641-289-620-227-114-444-680-744-4-1">
      <stop
         id="stop5430-5-0"
         style="stop-color:#737373;stop-opacity:1"
         offset="0" />
      <stop
         id="stop5432-2-0"
         style="stop-color:#636363;stop-opacity:1"
         offset="0.26238" />
      <stop
         id="stop5434-9-6"
         style="stop-color:#4b4b4b;stop-opacity:1"
         offset="0.704952" />
      <stop
         id="stop5436-2-7"
         style="stop-color:#3f3f3f;stop-opacity:1"
         offset="1" />
    </linearGradient>
    <radialGradient
       cx="16.202444"
       cy="-19.005346"
       r="19.99999"
       fx="16.202444"
       fy="-19.005346"
       id="radialGradient3896-0"
       xlink:href="#linearGradient2867-449-88-871-390-598-476-591-434-148-57-177-641-289-620-227-114-444-680-744-4-1-5"
       gradientUnits="userSpaceOnUse"
       gradientTransform="matrix(-1.5000006,0,0,1.5241254,46.516719,40.663357)" />
    <linearGradient
       id="linearGradient2867-449-88-871-390-598-476-591-434-148-57-177-641-289-620-227-114-444-680-744-4-1-5">
      <stop
         id="stop5430-5-0-9"
         style="stop-color:#737373;stop-opacity:1"
         offset="0" />
      <stop
         id="stop5432-2-0-0"
         style="stop-color:#636363;stop-opacity:1"
         offset="0.26238" />
      <stop
         id="stop5434-9-6-8"
         style="stop-color:#4b4b4b;stop-opacity:1"
         offset="0.704952" />
      <stop
         id="stop5436-2-7-0"
         style="stop-color:#3f3f3f;stop-opacity:1"
         offset="1" />
    </linearGradient>
  </defs>
  <metadata
     id="metadata4529">
    <rdf:RDF>
      <cc:Work
         rdf:about="">
        <dc:format>image/svg+xml</dc:format>
        <dc:type
           rdf:resource="http://purl.org/dc/dcmitype/StillImage" />
        <dc:title></dc:title>
      </cc:Work>
    </rdf:RDF>
  </metadata>
  <path
     d="m 19.470293,12.3436 c 0.0098,0.245788 -0.100449,0.475448 -0.28125,0.65625 l -6.96875,7.125 c -0.146901,0.146902 -0.31694,0.238672 -0.5,0.28125 -0.09403,0.02187 -0.187359,0.03729 -0.28125,0.03125 -0.03029,0.0017 -0.06324,0.0012 -0.09375,0 -0.05498,-0.0095 -0.104001,-0.01176 -0.15625,-0.03125 -0.188768,-0.04065 -0.380039,-0.130039 -0.53125,-0.28125 l -6.9687502,-7.125 c -0.361604,-0.361604 -0.329237,-0.952013 0.0625,-1.34375 l 1.40625,-1.406249 c 0.391737,-0.3917374 1.013396,-0.4241044 1.375,-0.0625 l 2.90625,2.906249 0,-6.5624994 c 0,-0.554 0.446,-1 1.0000002,-1 l 2,0 c 0.554,0 1,0.446 1,1 l 0,6.5937494 2.9375,-2.937499 c 0.361603,-0.3616044 0.952012,-0.3292374 1.34375,0.0625 l 1.4375,1.406249 c 0.195868,0.195869 0.302668,0.441712 0.3125,0.6875 z"
     id="rect3811-1-7"
     style="opacity:0.35;color:#000000;fill:#ffffff;fill-opacity:1;fill-rule:nonzero;stroke:none;stroke-width:1;marker:none;visibility:visible;display:inline;overflow:visible;enable-background:accumulate" />
  <path
     d="m 19.470293,11.343972 c 0.0098,0.245788 -0.100448,0.475448 -0.28125,0.65625 l -6.96875,7.125 c -0.146901,0.146902 -0.31694,0.238672 -0.5,0.28125 -0.09403,0.02187 -0.187359,0.03729 -0.28125,0.03125 -0.03029,0.0017 -0.06324,0.0012 -0.09375,0 -0.05498,-0.0095 -0.104001,-0.01176 -0.15625,-0.03125 -0.188768,-0.04065 -0.380039,-0.130039 -0.53125,-0.28125 l -6.9687503,-7.125 c -0.361604,-0.361604 -0.329237,-0.952013 0.0625,-1.34375 l 1.40625,-1.4062495 c 0.391737,-0.391737 1.013396,-0.424104 1.375,-0.0625 l 2.90625,2.9062495 0,-6.5624995 c 0,-0.554 0.446,-1 1.0000003,-1 l 2,0 c 0.554,0 1,0.446 1,1 l 0,6.5937495 2.9375,-2.9374995 c 0.361603,-0.361604 0.952013,-0.329237 1.34375,0.0625 l 1.4375,1.4062495 c 0.195868,0.195869 0.302668,0.441712 0.3125,0.6875 z"
     id="rect3811-1"
     style="color:#000000;fill:url(#radialGradient3896-0);fill-opacity:1;fill-rule:nonzero;stroke:none;stroke-width:1;marker:none;visibility:visible;display:inline;overflow:visible;enable-background:accumulate" />
  <path
     d="m 18.982618,11.380987 c 0.0034,0.08513 -0.02154,0.177794 -0.125,0.28125 l -6.96875,7.125 c -0.08449,0.08449 -0.185522,0.133984 -0.28125,0.15625 -0.07356,0.01711 -0.106253,0.0012 -0.125,0 a 0.49703749,0.49703749 0 0 0 -0.03125,0 c -0.04523,-0.0078 -0.02193,0.0013 -0.03125,0 -0.0052,2.88e-4 -0.0099,8.53e-4 -0.03125,0 a 0.49703749,0.49703749 0 0 0 -0.09375,-0.03125 c -0.109721,-0.02363 -0.208964,-0.05271 -0.28125,-0.125 l -6.9687503,-7.125 c -0.159857,-0.159857 -0.162366,-0.431384 0.0625,-0.65625 l 1.40625,-1.4062498 c 0.215521,-0.215521 0.537767,-0.212233 0.6875,-0.0625 l 2.90625,2.9062498 a 0.49703749,0.49703749 0 0 0 0.84375,-0.34375 l 0,-6.5624998 c 0,-0.287265 0.2127353,-0.5 0.5000003,-0.5 l 2,0 c 0.287265,0 0.5,0.212735 0.5,0.5 l 0,6.5937498 a 0.49703749,0.49703749 0 0 0 0.84375,0.34375 l 2.9375,-2.9374998 c 0.159856,-0.159856 0.431384,-0.162366 0.65625,0.0625 l 1.4375,1.4062498 c 0.112713,0.112713 0.151634,0.259611 0.15625,0.375 z"
     id="path3996"
     style="opacity:0.1;color:#000000;fill:none;stroke:#000000;stroke-width:1;stroke-linecap:round;stroke-linejoin:round;stroke-miterlimit:4;stroke-opacity:1;stroke-dasharray:none;stroke-dashoffset:0;marker:none;visibility:visible;display:inline;overflow:visible;enable-background:accumulate" />
  <path
     d="m 17.734375,11.421875 -6.34375,6.5 -6.34375,-6.46875 0.78125,-0.78125 2.53125,2.53125 a 1.4619211,1.4619211 0 0 0 2.5,-1.03125 l 0,-6.09375 1.0625,0 0,6.125 a 1.4619211,1.4619211 0 0 0 2.5,1.03125 l 2.5625,-2.5625 0.75,0.75 z"
     id="path3996-3"
     style="opacity:0.02999998;color:#000000;fill:none;stroke:#000000;stroke-width:1;stroke-linecap:butt;stroke-linejoin:miter;stroke-miterlimit:4;stroke-opacity:1;stroke-dasharray:none;stroke-dashoffset:0;marker:none;visibility:visible;display:inline;overflow:visible;enable-background:accumulate" />
</svg>
